Coordinates
version=1
nRows=24
nColumns=34
inDegrees=no

Units are S.I. units (second, meters, Newtons, ...)
If the header above contains a line with 'inDegrees', this indicates whether rotational values are in degrees (yes) or radians (no).

endheader
time	pelvis_tilt	pelvis_list	pelvis_rotation	pelvis_tx	pelvis_ty	pelvis_tz	hip_flexion_r	hip_adduction_r	hip_rotation_r	knee_angle_r	ankle_angle_r	subtalar_angle_r	mtp_angle_r	hip_flexion_l	hip_adduction_l	hip_rotation_l	knee_angle_l	ankle_angle_l	subtalar_angle_l	mtp_angle_l	lumbar_extension	lumbar_bending	lumbar_rotation	arm_flex_r	arm_add_r	arm_rot_r	elbow_flex_r	pro_sup_r	arm_flex_l	arm_add_l	arm_rot_l	elbow_flex_l	pro_sup_l
1.17	-0.111864	0.122343	-0.0645253	1.11754	0.924206	-0.25941	0.603883	-0.121992	-0.14839	0.251661	0.290477	0.252363	-0.0074518	-0.113887	0.14021	0.0112652	0.0270406	0.350945	0.277826	-0.00270249	-0.168553	-0.164363	-0.132231	-0.239781	-0.133977	-0.145597	0.484889	1.65144	0.19607	-0.276113	-0.0936323	0.807613	1.82164
1.18	-0.11416	0.116363	-0.0612846	1.12706	0.922753	-0.259603	0.596761	-0.11499	-0.14956	0.20388	0.288533	0.280133	-0.00745637	-0.118263	0.132178	-0.0108479	0.0350991	0.366704	0.307249	-0.00264649	-0.167055	-0.148116	-0.136541	-0.240038	-0.134642	-0.157936	0.487623	1.65387	0.198774	-0.274551	-0.0873987	0.823739	1.82176
1.19	-0.117142	0.11019	-0.0577904	1.13664	0.921223	-0.259756	0.591494	-0.108403	-0.148301	0.164971	0.28657	0.298663	-0.00746093	-0.1196	0.123076	-0.0409375	0.0479532	0.384502	0.341587	-0.00259048	-0.164698	-0.131403	-0.14081	-0.239983	-0.135516	-0.169565	0.490681	1.65595	0.200557	-0.272797	-0.0813858	0.83961	1.82166
1.2	-0.120902	0.103813	-0.054098	1.14629	0.91962	-0.259888	0.588507	-0.102517	-0.146269	0.135787	0.285039	0.30909	-0.0074655	-0.117971	0.112858	-0.0790648	0.0657381	0.404162	0.380499	-0.00253448	-0.161376	-0.114159	-0.145053	-0.239555	-0.136697	-0.180533	0.493966	1.65778	0.201328	-0.270783	-0.0755609	0.855135	1.82134
1.21	-0.125396	0.0971275	-0.0503079	1.15603	0.917957	-0.260017	0.587728	-0.0973486	-0.144741	0.116224	0.283929	0.312618	-0.00747006	-0.113966	0.101515	-0.123706	0.0877532	0.425053	0.422297	-0.00247847	-0.157133	-0.0962167	-0.149203	-0.238727	-0.138302	-0.190892	0.497427	1.65942	0.201018	-0.268405	-0.0699199	0.870222	1.82083
1.22	-0.130417	0.0899582	-0.0465641	1.16592	0.916253	-0.26016	0.588568	-0.0926356	-0.14436	0.105256	0.282672	0.310124	-0.00747463	-0.10871	0.0891073	-0.171615	0.112398	0.446046	0.463899	-0.00242246	-0.152157	-0.0773182	-0.153118	-0.237506	-0.140471	-0.200664	0.501059	1.66093	0.199578	-0.265518	-0.0644934	0.884776	1.82019
1.23	-0.135615	0.0820579	-0.0430436	1.176	0.914544	-0.26032	0.590086	-0.0878903	-0.145155	0.101241	0.28022	0.302072	-0.00747919	-0.103677	0.0757507	-0.218393	0.13746	0.465681	0.50148	-0.00236644	-0.146768	-0.0571434	-0.156602	-0.235918	-0.143351	-0.209832	0.504888	1.66231	0.196986	-0.261963	-0.0593442	0.8987	1.81952
1.24	-0.140587	0.0730754	-0.0399103	1.18633	0.912897	-0.260483	0.591312	-0.0824959	-0.146837	0.102295	0.275279	0.288693	-0.00748375	-0.1002	0.0614863	-0.26019	0.160942	0.482684	0.532171	-0.00231041	-0.14133	-0.0353368	-0.159475	-0.233978	-0.147071	-0.21835	0.508953	1.66359	0.193256	-0.257596	-0.0545444	0.911895	1.81887
1.25	-0.145006	0.06265	-0.0372952	1.19694	0.911361	-0.260623	0.591471	-0.0757948	-0.149055	0.106613	0.26661	0.270249	-0.00748832	-0.0992282	0.0462401	-0.29456	0.181494	0.496184	0.554701	-0.00225438	-0.136221	-0.0115342	-0.161592	-0.231678	-0.151725	-0.226151	0.513279	1.6648	0.188439	-0.252312	-0.0501551	0.924246	1.81827
1.26	-0.148633	0.0504531	-0.0352898	1.20784	0.909976	-0.26072	0.590063	-0.0671844	-0.151583	0.112671	0.253325	0.247292	-0.00749288	-0.101223	0.0298488	-0.320648	0.198537	0.50575	0.569341	-0.00219835	-0.131742	0.0145739	-0.16286	-0.228987	-0.157356	-0.233158	0.517856	1.66596	0.182611	-0.246057	-0.0462086	0.935616	1.81768
1.27	-0.151347	0.0362483	-0.0339348	1.21902	0.908776	-0.260748	0.586821	-0.0561993	-0.154403	0.119315	0.235124	0.220849	-0.00749743	-0.106193	0.012111	-0.338958	0.212166	0.511307	0.577482	-0.00214231	-0.128069	0.0431767	-0.163238	-0.225876	-0.163948	-0.239306	0.52263	1.66708	0.175862	-0.238822	-0.0426922	0.945832	1.81702
1.28	-0.153142	0.0199406	-0.0332285	1.23048	0.907785	-0.260689	0.581664	-0.0425784	-0.157709	0.125761	0.212431	0.192473	-0.00750199	-0.113802	-0.00713492	-0.350881	0.222957	0.513005	0.581068	-0.00208627	-0.125238	0.0742914	-0.162735	-0.222329	-0.17143	-0.244568	0.527502	1.6681	0.168292	-0.230643	-0.0395397	0.954694	1.81621
1.29	-0.154107	0.00161248	-0.033147	1.24221	0.907018	-0.260528	0.574663	-0.0263108	-0.161843	0.131555	0.186408	0.164142	-0.00750655	-0.1235	-0.0279286	-0.358161	0.231759	0.511088	0.582039	-0.00203022	-0.123167	0.107729	-0.161388	-0.21835	-0.179671	-0.248974	0.532344	1.66894	0.159998	-0.221595	-0.0366289	0.961976	1.81518
1.3	-0.154423	-0.018455	-0.0336652	1.25418	0.906483	-0.260255	0.566019	-0.0076498	-0.167216	0.136556	0.158836	0.138066	-0.0075111	-0.13463	-0.0501237	-0.362417	0.239505	0.505795	0.581878	-0.00197417	-0.121689	0.143083	-0.159254	-0.213968	-0.188497	-0.252618	0.53702	1.66946	0.151074	-0.211787	-0.0337894	0.967452	1.81389
1.31	-0.154318	-0.0397989	-0.0347779	1.26636	0.906177	-0.259864	0.556039	0.0128998	-0.174247	0.140907	0.131871	0.116448	-0.00751565	-0.146502	-0.0733577	-0.364806	0.247096	0.497296	0.581296	-0.00191812	-0.120584	0.179744	-0.156397	-0.209231	-0.197691	-0.255661	0.541406	1.66947	0.14161	-0.201366	-0.0308191	0.970923	1.81237
1.32	-0.154013	-0.0618226	-0.0364982	1.27875	0.906089	-0.259351	0.545126	0.0346294	-0.18331	0.144987	0.107741	0.101252	-0.0075202	-0.158415	-0.0970607	-0.365851	0.255348	0.485677	0.580077	-0.00186207	-0.119591	0.216936	-0.152887	-0.204195	-0.207014	-0.258321	0.545412	1.66875	0.131691	-0.190503	-0.0275088	0.972247	1.81071
1.33	-0.153729	-0.0838354	-0.038843	1.29128	0.906206	-0.258716	0.533728	0.0566955	-0.194689	0.149306	0.0884387	0.0940037	-0.00752475	-0.169663	-0.120502	-0.365416	0.264987	0.470948	0.57709	-0.00180603	-0.118445	0.253781	-0.148808	-0.198919	-0.216212	-0.260852	0.548996	1.6671	0.121395	-0.179397	-0.0236697	0.971375	1.8091
1.34	-0.153674	-0.105113	-0.0418116	1.30394	0.906507	-0.257961	0.52229	0.0782034	-0.208511	0.154376	0.0754562	0.0956312	-0.0075293	-0.179527	-0.142866	-0.362833	0.276689	0.453077	0.570456	-0.00174998	-0.116896	0.289365	-0.144266	-0.193451	-0.225031	-0.263526	0.552168	1.66436	0.110792	-0.168262	-0.0191587	0.968372	1.8078
1.35	-0.154033	-0.124965	-0.0453628	1.31665	0.906968	-0.257093	0.511193	0.0983017	-0.224676	0.160579	0.0695941	0.106328	-0.00753384	-0.187268	-0.163358	-0.357114	0.29112	0.432034	0.557885	-0.00169393	-0.114729	0.322827	-0.139404	-0.187828	-0.233231	-0.266601	0.554997	1.66041	0.0999399	-0.157322	-0.0138948	0.963432	1.80713
1.36	-0.15496	-0.142813	-0.049395	1.32937	0.907566	-0.256119	0.500709	0.116278	-0.242789	0.168055	0.0708746	0.125459	-0.00753839	-0.192144	-0.181309	-0.347247	0.308965	0.407836	0.537141	-0.00163789	-0.111769	0.353439	-0.134402	-0.182078	-0.240598	-0.270296	0.557601	1.65528	0.088886	-0.146797	-0.00786148	0.956879	1.80739
1.37	-0.156561	-0.158244	-0.0537389	1.34205	0.908274	-0.255049	0.490975	0.13164	-0.262133	0.176664	0.0785716	0.151554	-0.00754293	-0.193437	-0.196288	-0.33249	0.330926	0.380595	0.506585	-0.00158186	-0.107894	0.38067	-0.129468	-0.17623	-0.246961	-0.274766	0.560151	1.64908	0.0776637	-0.1369	-0.00109414	0.949147	1.80888
1.38	-0.158897	-0.171062	-0.0581646	1.35461	0.909067	-0.253897	0.482002	0.144169	-0.281741	0.186008	0.0913676	0.182452	-0.00754747	-0.190504	-0.208166	-0.312616	0.357688	0.350565	0.465678	-0.00152582	-0.103034	0.404241	-0.124815	-0.170325	-0.252197	-0.280072	0.562861	1.64206	0.0662972	-0.127827	0.00634516	0.940744	1.81174
1.39	-0.161974	-0.181292	-0.0624057	1.36701	0.90992	-0.252672	0.473715	0.153914	-0.300596	0.195554	0.107642	0.215678	-0.00755201	-0.182829	-0.217137	-0.288026	0.389843	0.318168	0.415234	-0.0014698	-0.0971773	0.424124	-0.120627	-0.164426	-0.256243	-0.286177	0.565982	1.63452	0.0548106	-0.11975	0.0143987	0.932203	1.81602
1.4	-0.165758	-0.189142	-0.0661971	1.37921	0.910809	-0.251387	0.466031	0.161122	-0.317924	0.204805	0.125819	0.248966	-0.00755655	-0.170084	-0.223621	-0.259635	0.427772	0.283991	0.357183	-0.00141378	-0.0903677	0.440505	-0.117035	-0.158614	-0.259099	-0.292928	0.569783	1.62677	0.0432381	-0.112809	0.0230325	0.924022	1.82158
